<svg xmlns="http://www.w3.org/2000/svg" viewBox="0 0 987.46 938.07"><defs><style>.a,.b{fill:none;stroke:#000;stroke-miterlimit:10;stroke-width:32px;}.a{stroke-linecap:round;}</style></defs><path class="a" d="M90.73,100.35Q28.24,159.72,28.24,264.61q0,97.67,44,158.85T217.42,528.65Q322,575.08,356.27,608.82t34.28,96.45C390.55,801.73,334.47,857,221,857c-51.58,0-97.29,0-153.18,0M608.25,197.33V131.25A90.25,90.25,0,0,0,518,41h0c-49.32-.13-198.37,0-255.84,0a327.49,327.49,0,0,0-65,6.08m692.68,8.22L667.1,393h0c-17.63,26.45-58.85,14-58.85-17.81V313.78m277,406.92L744.54,454.45a32.15,32.15,0,0,1,1.6-32.7L968.75,89.57M517.84,739l-.05,176.39A31.56,31.56,0,0,0,549.35,947h26.72a32.14,32.14,0,0,0,32.15-32.18L607,620.88a32,32,0,0,1,5.54-18.06l33.53-44a32.15,32.15,0,0,1,55.14,3.2l192,367.61A32.15,32.15,0,0,0,921.7,947h29.81A32.16,32.16,0,0,0,980,899.8l-40.12-75.89M147.63,364.68q-31.84-37.37-31.85-98.86C115.78,181.83,163,131,258,131H485.5A32.48,32.48,0,0,1,518,163.5l-.11,421.83M67.47,947H220.34q124,0,191.37-66t67.36-181.75q0-88.62-40.13-145T279.19,444.86" transform="translate(-12.24 -24.93)"/><path class="b" d="M450,129.68" transform="translate(-12.24 -24.93)"/><path class="b" d="M269,853" transform="translate(-12.24 -24.93)"/><path class="a" d="M137,67" transform="translate(-12.24 -24.93)"/></svg>